<svg xmlns="http://www.w3.org/2000/svg" xmlns:xlink="http://www.w3.org/1999/xlink" class="" app-context="doc-2d" x="0px" y="0px" width="595.2755905512" height="841.8897637795" jvs-fullPath="gdrive/BARE.svg"><title/><desc/><defs><link xmlns="http://www.w3.org/1999/xhtml" rel="stylesheet" type="text/css" href="https://fonts.googleapis.com/css?family=Didact+Gothic:regular&amp;subset=latin"></link></defs><g id="jvs-guides" transform="matrix(1 0 0 1 0 0)"/><g id="jvs-content" enable-background="new"><g transform="matrix(1,0,0,1,0,0)" name="Layer" jvs-layer-color="#fb0094" class="jvs-layer selected"><path fill="none" stroke="#000000" stroke-width="1.00" stroke-linecap="butt" stroke-linejoin="miter" opacity="1" d="M 240 380 L 240 480" transform="matrix(1 0 0 1 0 0)"/><path fill="none" stroke="#000000" stroke-width="1.00" stroke-linecap="butt" stroke-linejoin="miter" opacity="1" d="M 240 480 L 360 480" transform="matrix(1 0 0 1 0 0)"/><path fill="none" stroke="#000000" stroke-width="1.00" stroke-linecap="butt" stroke-linejoin="miter" opacity="1" d="M 360 481 L 360 380" transform="matrix(1 0 0 1 0 0)"/><path fill="none" stroke="#000000" stroke-width="1.00" stroke-linecap="butt" stroke-linejoin="miter" opacity="1" d="M 300 340 L 360 380" transform="matrix(1 0 0 1 0 0)"/><path fill="none" stroke="#000000" stroke-width="1.00" stroke-linecap="butt" stroke-linejoin="miter" opacity="1" d="M 360 380 L 420 420" transform="matrix(1 0 0 1 0 0)"/><path fill="none" stroke="#000000" stroke-width="1.00" stroke-linecap="butt" stroke-linejoin="miter" opacity="1" d="M 300 340 L 240 380" transform="matrix(1 0 0 1 0 0)"/><path fill="none" stroke="#000000" stroke-width="1.00" stroke-linecap="butt" stroke-linejoin="miter" opacity="1" d="M 240 380 L 180 420" transform="matrix(1 0 0 1 0 0)"/><text controller-class="Text_box" transform="matrix(1 0 0 1 249 399)" width="103.234375" height="48" font-family="Didact Gothic" font-size="16" font-style="regular" text-align="center" text-anchor="middle" fill="none" stroke="#000000" stroke-width="2" stroke-linecap="butt" stroke-linejoin="miter" opacity="1" style="" selected="true" font-weight="" word-spacing="0" line-height="27" letter-spacing="2"><tspan x="51.50000191122999" y="16" newline=""><![CDATA[BARE]]></tspan><tspan x="51.50000191122999" y="43"><![CDATA[ESSENTIALS]]></tspan></text></g></g></svg>